<svg height="512pt" viewBox="0 -31 512.001 512" width="512pt" xmlns="http://www.w3.org/2000/svg"><path d="m445.929688 102.847656h-379.859376c-24.605468 0-44.625 20.019532-44.625 44.625v270.875c0 .292969.011719.582032.019532.871094l.007812.25c.105469 4.066406 3.429688 7.308594 7.496094 7.308594h454.066406c4.0625 0 7.390625-3.242188 7.492188-7.308594l.007812-.25c.011719-.289062.019532-.578125.019532-.871094v-270.875c0-24.605468-20.019532-44.625-44.625-44.625zm0 0" fill="#d0cfd1"/><path d="m445.929688 102.847656h-22.988282c24.609375 0 44.625 20.019532 44.625 44.625v270.875c0 .292969-.007812.582032-.015625.871094l-.011719.25c-.101562 4.066406-3.425781 7.308594-7.492187 7.308594h22.984375c4.066406 0 7.394531-3.242188 7.496094-7.308594l.007812-.25c.007813-.289062.019532-.578125.019532-.871094v-270.875c0-24.605468-20.019532-44.625-44.625-44.625zm0 0" fill="#c4c3c4"/><path d="m445.929688 134.671875h-379.859376c-6.9375 0-12.796874 5.863281-12.796874 12.800781v270.875c0 .769532.074218 1.558594.226562 2.347656.679688 3.53125 3.769531 6.078126 7.359375 6.078126h390.277344c3.59375 0 6.683593-2.546876 7.359375-6.078126.152344-.789062.230468-1.578124.230468-2.347656v-270.875c0-6.9375-5.859374-12.800781-12.796874-12.800781zm0 0" fill="#4890e3"/><path d="m445.929688 134.671875h-22.988282c6.9375 0 12.800782 5.863281 12.800782 12.800781v270.875c0 .769532-.078126 1.558594-.226563 2.347656-.679687 3.53125-3.769531 6.078126-7.363281 6.078126h22.988281c3.589844 0 6.679687-2.546876 7.359375-6.078126.148438-.789062.226562-1.578124.226562-2.347656v-270.875c0-6.9375-5.859374-12.800781-12.796874-12.800781zm0 0" fill="#2970d6"/><g fill="#ecedef"><path d="m166.859375 269.140625c-1.863281 0-3.730469-.691406-5.183594-2.082031-2.988281-2.863282-3.089843-7.609375-.226562-10.597656l23.550781-24.574219c1.429688-1.492188 3.433594-2.34375 5.476562-2.308594l45.542969.382813c4.136719.035156 7.464844 3.421874 7.429688 7.558593-.035157 4.121094-3.382813 7.433594-7.492188 7.433594-.023437 0-.042969 0-.066406 0l-42.304687-.355469-21.3125 22.238282c-1.472657 1.53125-3.445313 2.304687-5.414063 2.304687zm0 0"/><path d="m166.859375 301.527344c-1.863281 0-3.730469-.691406-5.183594-2.082032-2.988281-2.867187-3.089843-7.609374-.226562-10.597656l23.550781-24.574218c1.429688-1.492188 3.433594-2.363282 5.476562-2.308594l45.542969.382812c4.136719.035156 7.464844 3.421875 7.429688 7.558594-.035157 4.117188-3.382813 7.433594-7.492188 7.433594-.023437 0-.042969 0-.066406 0l-42.304687-.355469-21.3125 22.238281c-1.472657 1.53125-3.445313 2.304688-5.414063 2.304688zm0 0"/><path d="m166.859375 333.914062c-1.863281 0-3.730469-.691406-5.183594-2.085937-2.988281-2.863281-3.089843-7.605469-.226562-10.597656l23.550781-24.574219c1.414062-1.472656 3.367188-2.308594 5.410156-2.308594h.0625l45.542969.382813c4.140625.035156 7.46875 3.421875 7.433594 7.558593-.035157 4.121094-3.386719 7.433594-7.496094 7.433594-.019531 0-.039063 0-.0625 0l-42.308594-.355468-21.308593 22.234374c-1.476563 1.539063-3.445313 2.3125-5.414063 2.3125zm0 0"/><path d="m345.140625 269.140625c-1.972656 0-3.9375-.769531-5.414063-2.308594l-21.308593-22.238281-42.308594.355469c-4.148437.054687-7.523437-3.289063-7.558594-7.429688-.035156-4.140625 3.292969-7.523437 7.433594-7.558593l45.542969-.382813h.0625c2.042968 0 3.996094.832031 5.410156 2.308594l23.550781 24.574219c2.863281 2.988281 2.765625 7.730468-.226562 10.597656-1.449219 1.390625-3.320313 2.082031-5.183594 2.082031zm0 0"/><path d="m345.140625 301.527344c-1.972656 0-3.9375-.773438-5.414063-2.308594l-21.308593-22.238281-42.308594.355469c-4.148437.070312-7.523437-3.292969-7.558594-7.429688-.035156-4.140625 3.292969-7.523438 7.433594-7.558594l45.542969-.386718h.0625c2.042968 0 3.996094.835937 5.410156 2.3125l23.550781 24.574218c2.863281 2.988282 2.765625 7.730469-.226562 10.59375-1.449219 1.394532-3.320313 2.085938-5.183594 2.085938zm0 0"/><path d="m345.140625 333.914062c-1.972656 0-3.9375-.773437-5.414063-2.3125l-21.308593-22.234374-42.308594.355468c-4.148437.082032-7.523437-3.292968-7.558594-7.433594-.035156-4.136718 3.292969-7.523437 7.433594-7.558593l45.542969-.382813h.0625c2.042968 0 3.996094.835938 5.410156 2.308594l23.550781 24.574219c2.863281 2.992187 2.765625 7.734375-.226562 10.597656-1.449219 1.390625-3.320313 2.085937-5.183594 2.085937zm0 0"/></g><path d="m256.121094 186.105469c-19.5 0-35.363282 15.863281-35.363282 35.359375 0 .132812.003907.261718.007813.332031.050781 4.101563 3.390625 7.402344 7.496094 7.402344h55.722656c4.101563 0 7.441406-3.242188 7.492187-7.34375.003907-.128907.007813-.257813.007813-.390625 0-19.496094-15.863281-35.359375-35.363281-35.359375zm0 0" fill="#f45a3c"/><path d="m256.121094 186.105469c-4.207032 0-8.246094.742187-11.992188 2.09375 13.613282 4.925781 23.371094 17.976562 23.371094 33.265625 0 .132812-.003906.261718-.007812.390625-.050782 4.105469-3.390626 7.34375-7.492188 7.34375h23.984375c4.101563 0 7.441406-3.238281 7.492187-7.34375.003907-.128907.007813-.257813.007813-.390625 0-19.496094-15.863281-35.359375-35.363281-35.359375zm0 0" fill="#e24a2a"/><path d="m285.710938 214.589844h-58.925782c-13.488281 0-24.460937 10.972656-24.460937 24.460937v43.246094c0 29.734375 24.191406 53.925781 53.925781 53.925781s53.921875-24.191406 53.921875-53.925781v-43.246094c.003906-13.488281-10.972656-24.460937-24.460937-24.460937zm0 0" fill="#f45a3c"/><path d="m285.710938 214.589844h-23.984376c13.488282 0 24.464844 10.972656 24.464844 24.460937v43.246094c0 25.613281-17.953125 47.097656-41.933594 52.566406 3.859376.878907 7.871094 1.359375 11.992188 1.359375 29.734375 0 53.925781-24.191406 53.925781-53.925781v-43.246094c0-13.488281-10.976562-24.460937-24.464843-24.460937zm0 0" fill="#e24a2a"/><path d="m314.082031 72.742188c-4.140625 0-7.492187-3.355469-7.492187-7.496094 0-27.710938-22.546875-50.253906-50.257813-50.253906-27.710937 0-50.253906 22.542968-50.253906 50.253906 0 4.140625-3.355469 7.496094-7.496094 7.496094s-7.496093-3.355469-7.496093-7.496094c0-35.976563 29.269531-65.246094 65.246093-65.246094 35.976563 0 65.246094 29.269531 65.246094 65.246094 0 4.140625-3.355469 7.496094-7.496094 7.496094zm0 0" fill="#d0cfd1"/><path d="m284.910156 68.964844c-4.140625 0-7.492187-3.355469-7.492187-7.496094 0-11.625-9.460938-21.082031-21.085938-21.082031s-21.082031 9.457031-21.082031 21.082031c0 4.140625-3.355469 7.496094-7.496094 7.496094s-7.496094-3.355469-7.496094-7.496094c0-19.890625 16.183594-36.070312 36.074219-36.070312s36.074219 16.179687 36.074219 36.070312c0 4.140625-3.355469 7.496094-7.496094 7.496094zm0 0" fill="#d0cfd1"/><path d="m504.503906 383.097656h-189.375c-1.570312 0-3.105468.496094-4.382812 1.417969l-8.195313 5.910156h-92.425781l-8.195312-5.910156c-1.277344-.921875-2.8125-1.417969-4.382813-1.417969h-190.050781c-4.140625 0-7.496094 3.359375-7.496094 7.496094v16.21875c0 23.707031 19.285156 42.992188 42.988281 42.992188h426.023438c23.703125 0 42.988281-19.285157 42.988281-42.992188v-16.21875c0-4.140625-3.355469-7.496094-7.496094-7.496094zm0 0" fill="#9c9b9d"/><path d="m504.503906 383.097656h-23.984375c4.140625 0 7.496094 3.359375 7.496094 7.496094v16.21875c0 23.707031-19.285156 42.992188-42.988281 42.992188h23.984375c23.703125 0 42.988281-19.285157 42.988281-42.992188v-16.21875c0-4.140625-3.355469-7.496094-7.496094-7.496094zm0 0" fill="#868687"/></svg>